<mxfile host="app.diagrams.net" modified="2024-03-28T00:46:33.424Z" agent="Mozilla/5.0 (Windows NT 10.0; Win64; x64) AppleWebKit/537.36 (KHTML, like Gecko) Chrome/123.0.0.0 Safari/537.36" version="24.2.0" etag="Dn-cQGcpiu8pU_FNw4L9" type="github">
  <diagram name="第 1 页" id="zDo1qu29ASSPt817Pfob">
    <mxGraphModel>
      <root>
        <mxCell id="0" />
        <mxCell id="1" parent="0" />
      </root>
    </mxGraphModel>
  </diagram>
</mxfile>
